<svg width="40" height="40" viewBox="0 0 40 40" fill="none" xmlns="http://www.w3.org/2000/svg">
<circle cx="20" cy="20" r="20" fill="black"/>
<path d="M29.0476 27H10C9.44772 27 9 26.5523 9 26V13.8111C9 12.7825 10.3661 12.424 10.8712 13.3201L13.8512 18.6077C14.2305 19.2808 15.1973 19.2878 15.5863 18.6203L18.5132 13.5983C18.8917 12.9488 19.8245 12.9335 20.2241 13.5702L23.4466 18.7045C23.8496 19.3466 24.7926 19.3243 25.1647 18.6639L28.1764 13.3201C28.6815 12.424 30.0476 12.7825 30.0476 13.8111V26C30.0476 26.5523 29.5999 27 29.0476 27Z" stroke="white"/>
<path d="M19.5238 20.5238C19.5238 22.0781 19.5238 24.4095 19.5238 25.3809" stroke="white"/>
<path d="M11.4286 20.5238C11.4286 22.0781 11.4286 24.4095 11.4286 25.3809" stroke="white"/>
<path d="M28.4286 20.5238C28.4286 22.0781 28.4286 24.4095 28.4286 25.3809" stroke="white"/>
</svg>
