<svg width="72" height="72" viewBox="0 0 72 72" fill="none" xmlns="http://www.w3.org/2000/svg">
<circle cx="36" cy="36" r="35.5" stroke="black"/>
<path d="M49.5 47.5H22C21.4477 47.5 21 47.0523 21 46.5V27.7656C21 26.7401 22.3595 26.3791 22.8682 27.2694L28.1462 36.5059C28.5269 37.1721 29.4851 37.1791 29.8754 36.5185L34.6706 28.4035C35.0503 27.761 35.9746 27.7457 36.3752 28.3754L41.6103 36.6019C42.0144 37.2369 42.9488 37.2147 43.3222 36.5612L48.6318 27.2694C49.1405 26.3791 50.5 26.7401 50.5 27.7656V46.5C50.5 47.0523 50.0523 47.5 49.5 47.5Z" stroke="black"/>
<path d="M36 38C36 40.4 36 44 36 45.5" stroke="black"/>
<path d="M24 38C24 40.4 24 44 24 45.5" stroke="black"/>
<path d="M48 38C48 40.4 48 44 48 45.5" stroke="black"/>
</svg>
