<svg id="Layer_1" data-name="Layer 1" xmlns="http://www.w3.org/2000/svg" viewBox="0 0 435.14 298.38"><defs><style>.cls-1{fill:#231f20;}</style></defs><path class="cls-1" d="M99.55,141a32.88,32.88,0,0,0,14.09-2.93,23.58,23.58,0,0,0,9.81-8.19A21.25,21.25,0,0,0,127,117.68a24.56,24.56,0,0,0-2.74-11.84,18.76,18.76,0,0,0-8-7.83A26.14,26.14,0,0,0,104,95.27a23,23,0,0,0-16.29,6.12q.72-6,4.37-9.23t11.47-4.63L124,83.66l-2.34-14.31L98,73.85q-26.64,5-26.64,35.1,0,16,7.65,24T99.55,141Zm-7.24-30.6a10,10,0,0,1,7.33-2.7,9.23,9.23,0,0,1,9.9,10,10.66,10.66,0,0,1-2.65,7.38,9.24,9.24,0,0,1-7.25,3,9.69,9.69,0,0,1-7.29-2.88,10.17,10.17,0,0,1-2.79-7.38A9.88,9.88,0,0,1,92.31,110.39Z"/><path class="cls-1" d="M138.16,82.94a10.83,10.83,0,0,0,7.56,2.61,10.72,10.72,0,0,0,7.56-2.66,8.72,8.72,0,0,0,2.88-6.7,8,8,0,0,0-2.88-6.35,11.19,11.19,0,0,0-7.56-2.47A10.83,10.83,0,0,0,138.16,70a8.73,8.73,0,0,0,0,13Z"/><rect class="cls-1" x="137.17" y="90.95" width="17.1" height="48.78"/><path class="cls-1" d="M200.62,139.73h17.1V91h-44.1l-.72,20.34a59.75,59.75,0,0,1-.72,8,10.59,10.59,0,0,1-2,4.82A5.09,5.09,0,0,1,166,126q-.54,0-2.16-.18l-.72,13.95a39.14,39.14,0,0,0,8.28,1.17q6.12,0,9.63-3.47a19.94,19.94,0,0,0,5-9.67A80.13,80.13,0,0,0,187.93,112l.36-7.47h12.33Z"/><path class="cls-1" d="M276.31,139.73V112.64q0-11.43-6.39-17t-18.54-5.53a46.81,46.81,0,0,0-11.65,1.48,31.94,31.94,0,0,0-9.86,4.19l5.76,11.61a19,19,0,0,1,6.12-3.11,23.74,23.74,0,0,1,7.11-1.12q9.9,0,10.35,7.74h-9.72q-11.07,0-16.38,3.82a12.5,12.5,0,0,0-5.31,10.76,14.17,14.17,0,0,0,2.12,7.69,14.48,14.48,0,0,0,6.25,5.36,22.53,22.53,0,0,0,9.81,2q10.71,0,14.4-7.11v6.3Zm-17.1-15.66A8,8,0,0,1,256,128.3a9.47,9.47,0,0,1-5.22,1.44,7.36,7.36,0,0,1-4.68-1.35,4.35,4.35,0,0,1-1.71-3.6q0-5,7.47-5h7.38Z"/><path class="cls-1" d="M124.75,171H79.66L79,188q-.36,8.55-2.07,13.27t-6.12,4.82H69v23.76H85V219.73h30.69v10.08H131.5V206.05h-6.75Zm-17.1,35.1H90.73a13.24,13.24,0,0,0,2.7-6.3,79.69,79.69,0,0,0,1-10.53l.18-4.68h13.05Z"/><path class="cls-1" d="M175.33,194.44a14.17,14.17,0,0,0,5.49-4.5,10.35,10.35,0,0,0,2-6.12q0-6.57-6.75-10.22T159,170a54.39,54.39,0,0,0-21,4.41L142,185.62a44.18,44.18,0,0,1,15.48-3.24q8,0,8,3.87,0,3.69-6,3.69h-9v10H161a8.5,8.5,0,0,1,4.41.9,3.14,3.14,0,0,1,1.44,2.88,3.63,3.63,0,0,1-2.38,3.33,14.79,14.79,0,0,1-6.44,1.17A44.1,44.1,0,0,1,140.86,205l-4.41,11.52a55,55,0,0,0,22.14,4.23,42.86,42.86,0,0,0,13-1.85,21.23,21.23,0,0,0,9.18-5.4,11.8,11.8,0,0,0,3.37-8.41,9.86,9.86,0,0,0-2.29-6.53A13.67,13.67,0,0,0,175.33,194.44Z"/><polygon class="cls-1" points="211.78 196.51 211.78 170.95 194.77 170.95 194.77 219.73 210.61 219.73 230.86 194.08 230.86 219.73 247.96 219.73 247.96 170.95 232.21 170.95 211.78 196.51"/><polygon class="cls-1" points="286.12 170.95 261.73 170.95 261.73 219.73 278.74 219.73 278.74 184.54 301.96 184.54 301.96 160.96 286.12 160.96 286.12 170.95"/><path class="cls-1" d="M349.39,175.67q-6.39-5.53-18.54-5.53a46.81,46.81,0,0,0-11.65,1.48,31.94,31.94,0,0,0-9.86,4.19l5.76,11.61a19,19,0,0,1,6.12-3.11,23.74,23.74,0,0,1,7.11-1.12q9.9,0,10.35,7.74H329q-11.07,0-16.38,3.82a12.5,12.5,0,0,0-5.31,10.76,14.17,14.17,0,0,0,2.12,7.69,14.54,14.54,0,0,0,6.25,5.36,22.53,22.53,0,0,0,9.81,2q10.71,0,14.4-7.11v6.3h15.93V192.64Q355.78,181.21,349.39,175.67Zm-10.71,28.4a8,8,0,0,1-3.24,4.23,9.47,9.47,0,0,1-5.22,1.44,7.36,7.36,0,0,1-4.68-1.35,4.35,4.35,0,0,1-1.71-3.6q0-4.95,7.47-4.95h7.38Z"/><path class="cls-1" d="M333.87,76a33.69,33.69,0,1,0,33.69,33.68A33.72,33.72,0,0,0,333.87,76Zm-9.46,13.18a6.85,6.85,0,0,1,3.31,9,6.69,6.69,0,0,1-1.2,1.82,7,7,0,0,1-9.94.13,6.77,6.77,0,0,1-1.48-2.5,6.3,6.3,0,0,0,4.22,1.67,6.41,6.41,0,0,0,6.4-6.4A6.22,6.22,0,0,0,324.41,89.21Zm-7.7-3.68a4.07,4.07,0,1,1-4.07,4.07A4.07,4.07,0,0,1,316.71,85.53ZM313,103.61a11.85,11.85,0,0,0,17.26-.22,12.14,12.14,0,0,0,2.09-3.16,11.83,11.83,0,0,0-1.44-12.06,12.48,12.48,0,0,1,1.29.59A13.09,13.09,0,0,1,337,94.35a12.81,12.81,0,0,1,1.17,5.38,12.94,12.94,0,0,1-5.29,10.49,13,13,0,0,1-17.71-2.07,13,13,0,0,1-2.58-5C312.72,103.29,312.82,103.46,313,103.61Zm4.44,12.46a18.07,18.07,0,0,0,18.47-1.82,18.13,18.13,0,0,0,7.31-14.52A17.87,17.87,0,0,0,335.51,85a19.73,19.73,0,0,1,7.12,3.91,20.1,20.1,0,0,1,4.2,5.12,19.82,19.82,0,0,1-1.16,21.43,19.83,19.83,0,0,1-34-3.17c-.13-.26-.17-.55-.28-.81A18.45,18.45,0,0,0,317.4,116.07Zm16.47,22.3a28.7,28.7,0,0,1-28.66-28.66c0-.38,0-.74.06-1.12a25,25,0,0,0,1.88,5.85,25.24,25.24,0,0,0,6.59,8.51,24.93,24.93,0,0,0,6,3.67,24.88,24.88,0,0,0,21.42-.76,25,25,0,0,0,8.61-7.45,24.71,24.71,0,0,0,4.72-14.56,24.81,24.81,0,0,0-8.52-18.72,25.09,25.09,0,0,0-4.45-3,28.64,28.64,0,0,1-7.61,56.26Z"/></svg>